<svg width="80" height="77" viewBox="0 0 80 77" fill="none" xmlns="http://www.w3.org/2000/svg">
<path d="M40.234 0.335938C31.2457 0.334377 22.5414 3.48503 15.6365 9.23942C8.73162 14.9938 4.06343 22.9875 2.44459 31.8288C0.825752 40.6702 2.3588 49.7993 6.77685 57.6269C11.1949 65.4545 18.2181 71.4849 26.6239 74.6681L29.8701 65.6252C23.5937 63.2058 18.3618 58.6665 15.0813 52.7941C11.8008 46.9218 10.6785 40.0866 11.9089 33.4736C13.1394 26.8605 16.6451 20.8865 21.8183 16.5871C26.9914 12.2877 33.5059 9.93402 40.2325 9.93402C46.959 9.93402 53.4735 12.2877 58.6467 16.5871C63.8198 20.8865 67.3255 26.8605 68.556 33.4736C69.7865 40.0866 68.6642 46.9218 65.3837 52.7941C62.1031 58.6665 56.8712 63.2058 50.5949 65.6252L53.841 74.6681C62.2466 71.4849 69.2696 65.4549 73.6877 57.6276C78.1058 49.8003 79.6391 40.6715 78.0206 31.8304C76.4022 22.9892 71.7345 14.9955 64.8302 9.24089C57.9259 3.48625 49.2221 0.335091 40.234 0.335938Z" fill="#008ECF"/>
<path d="M33.1166 56.5827L36.3658 47.5307C34.3494 46.643 32.6997 45.0888 31.6933 43.1289C30.687 41.169 30.3853 38.9227 30.8389 36.7667C31.2924 34.6108 32.4737 32.6764 34.1844 31.2881C35.8951 29.8998 38.0312 29.1421 40.2344 29.1421C42.4375 29.1421 44.5737 29.8998 46.2844 31.2881C47.9951 32.6764 49.1763 34.6108 49.6299 36.7667C50.0835 38.9227 49.7818 41.169 48.7754 43.1289C47.7691 45.0888 46.1193 46.643 44.1029 47.5307L47.3521 56.5827C51.5033 54.9278 54.948 51.8782 57.094 47.9583C59.2399 44.0384 59.9529 39.4933 59.1104 35.1046C58.2678 30.7159 55.9223 26.758 52.4774 23.9115C49.0324 21.065 44.7032 19.5078 40.2344 19.5078C35.7656 19.5078 31.4364 21.065 27.9914 23.9115C24.5464 26.758 22.201 30.7159 21.3584 35.1046C20.5159 39.4933 21.2289 44.0384 23.3748 47.9583C25.5208 51.8782 28.9655 54.9278 33.1166 56.5827Z" fill="white"/>
</svg>
